<svg xmlns="http://www.w3.org/2000/svg" width="23.653" height="23.652" viewBox="0 0 23.653 23.652"><defs><style>.a{fill:#c9b791;}</style></defs><g transform="translate(0 -0.008)"><path class="a" d="M287.434,209.486h-9.362a.739.739,0,0,1,0-1.478h9.362a.739.739,0,0,1,0,1.478Zm0,0" transform="translate(-264.521 -198.391)"/><path class="a" d="M400.743,136.841a.74.74,0,0,1-.522-1.262l3.173-3.173-3.173-3.173a.739.739,0,0,1,1.046-1.046l3.7,3.7a.739.739,0,0,1,0,1.046l-3.7,3.7A.734.734,0,0,1,400.743,136.841Zm0,0" transform="translate(-381.526 -122.051)"/><path class="a" d="M7.884,23.66a2.031,2.031,0,0,1-.611-.092L1.342,21.593A1.989,1.989,0,0,1,0,19.718V1.979A1.973,1.973,0,0,1,1.971.008,2.033,2.033,0,0,1,2.582.1L8.513,2.076A1.989,1.989,0,0,1,9.855,3.95V21.689A1.973,1.973,0,0,1,7.884,23.66ZM1.971,1.486a.494.494,0,0,0-.493.493V19.718a.512.512,0,0,0,.342.475l5.9,1.967a.535.535,0,0,0,.161.022.494.494,0,0,0,.493-.493V3.95a.512.512,0,0,0-.342-.475l-5.9-1.967a.535.535,0,0,0-.161-.022Zm0,0" transform="translate(0 0)"/><path class="a" d="M40.465,7.892a.739.739,0,0,1-.739-.739V2.718a1.234,1.234,0,0,0-1.232-1.232H27.407a.739.739,0,0,1,0-1.478H38.494a2.712,2.712,0,0,1,2.71,2.71V7.153A.739.739,0,0,1,40.465,7.892Zm0,0" transform="translate(-25.436)"/><path class="a" d="M186.013,285.224h-3.942a.739.739,0,0,1,0-1.478h3.942a1.234,1.234,0,0,0,1.232-1.232v-4.435a.739.739,0,1,1,1.478,0v4.435A2.712,2.712,0,0,1,186.013,285.224Zm0,0" transform="translate(-172.956 -264.52)"/></g></svg>