<svg xmlns="http://www.w3.org/2000/svg" width="16" height="16" viewBox="0 0 16 16"><defs><style>.a{fill:#c9b791;}</style></defs><path class="a" d="M14.527,6.025h-.34a6.461,6.461,0,0,0-.416-1l.241-.241a1.473,1.473,0,0,0,0-2.083l-.71-.71a1.473,1.473,0,0,0-2.083,0l-.241.241a6.465,6.465,0,0,0-1-.416v-.34A1.475,1.475,0,0,0,8.5,0h-1A1.475,1.475,0,0,0,6.025,1.473v.34a6.459,6.459,0,0,0-1,.416l-.241-.241a1.473,1.473,0,0,0-2.083,0l-.71.71a1.473,1.473,0,0,0,0,2.083l.241.241a6.46,6.46,0,0,0-.416,1h-.34A1.475,1.475,0,0,0,0,7.5v1A1.475,1.475,0,0,0,1.473,9.975h.34a6.461,6.461,0,0,0,.416,1l-.241.241a1.473,1.473,0,0,0,0,2.083l.71.71a1.473,1.473,0,0,0,2.083,0l.241-.241a6.466,6.466,0,0,0,1,.416v.34A1.475,1.475,0,0,0,7.5,16h1a1.475,1.475,0,0,0,1.473-1.473v-.34a6.459,6.459,0,0,0,1-.416l.241.241a1.473,1.473,0,0,0,2.083,0l.71-.71a1.473,1.473,0,0,0,0-2.083l-.241-.241a6.46,6.46,0,0,0,.416-1h.34A1.475,1.475,0,0,0,16,8.5v-1a1.475,1.475,0,0,0-1.473-1.473ZM8,11.481A3.481,3.481,0,1,1,11.481,8,3.485,3.485,0,0,1,8,11.481Z" transform="translate(0 0)"/></svg>